<svg width="430" height="430" viewBox="0 0 430 430" fill="none" xmlns="http://www.w3.org/2000/svg">
<circle cx="215" cy="215" r="215" fill="#FFAC3E"/>
<path fill-rule="evenodd" clip-rule="evenodd" d="M229.259 73.9481C242.104 63.4834 261.001 65.4133 271.466 78.2588L360.077 187.029C366.447 194.849 368.224 204.91 365.743 213.947C365.2 218.078 363.816 221.944 361.77 225.368C360.921 228.577 359.52 231.699 357.542 234.598L278.471 350.489C269.133 364.175 250.468 367.7 236.781 358.362C223.095 349.024 219.57 330.359 228.908 316.672L281.221 240H87C70.4315 240 57 226.569 57 210C57 193.431 70.4315 180 87 180H276.96L224.948 116.155C214.483 103.31 216.413 84.4128 229.259 73.9481Z" fill="white"/>
</svg>
