<?xml version="1.0" encoding="iso-8859-1"?>
<!-- Generator: Adobe Illustrator 19.0.0, SVG Export Plug-In . SVG Version: 6.00 Build 0)  -->
<svg version="1.1" id="Capa_1" xmlns="http://www.w3.org/2000/svg" xmlns:xlink="http://www.w3.org/1999/xlink" x="0px" y="0px"
	 viewBox="0 0 512.003 512.003" style="enable-background:new 0 0 512.003 512.003;" xml:space="preserve">
<path style="fill:#FFD33F;" d="M134.544,251.648c-4.807,0-9.615,0.26-14.396,0.772c-55.64,5.979-108.764,58.886-114.942,114.543
	C-3.012,438.38,48.228,502.932,119.644,511.15c29.113,3.35,58.495-3.228,83.408-18.657c12.617-8.209,27.013-13.268,41.991-14.752
	c3.61-0.321,7.272-0.477,10.986-0.477c3.523,0,7.02,0.121,10.482,0.373c15.203,1.432,29.833,6.543,42.624,14.891
	c61.177,37.756,141.374,18.769,179.13-42.407c15.351-24.87,21.885-54.182,18.544-83.209
	c-6.17-55.614-59.302-108.512-114.943-114.491c-4.773-0.512-9.563-0.772-14.353-0.772H134.544z"/>
<circle style="fill:#EA3836;" cx="316.772" cy="381.811" r="26.033"/>
<path style="fill:#FFAC3E;" d="M482.4,307.783C377.957,424.834,142.735,468.396,50.866,481.334
	c42.945,36.307,104.399,40.793,152.16,11.116c12.617-8.209,27.013-13.268,41.991-14.752c3.627-0.286,7.306-0.434,11.012-0.434
	c3.523,0,7.02,0.121,10.482,0.373c15.203,1.432,29.833,6.543,42.624,14.891c61.177,37.756,141.374,18.769,179.13-42.407
	c15.351-24.87,21.885-54.182,18.544-83.209C504.007,345.4,495.59,325.008,482.4,307.783z"/>
<polygon style="fill:#383856;" points="117.189,321.068 151.899,321.068 151.899,364.456 195.286,364.456 195.286,399.166 
	151.899,399.166 151.899,442.554 117.189,442.554 117.189,399.166 73.801,399.166 73.801,364.456 117.189,364.456 "/>
<g>
	<circle style="fill:#91CECE;" cx="377.514" cy="329.746" r="26.033"/>
	<circle style="fill:#91CECE;" cx="377.514" cy="433.876" r="26.033"/>
</g>
<circle style="fill:#EA3836;" cx="438.301" cy="381.811" r="26.033"/>
<polyline style="fill:#874D1B;" points="238.674,251.648 238.674,216.938 273.384,216.938 273.384,251.648 "/>
<path style="fill:#383856;" d="M264.707,216.938h-17.355v-26.033c0-9.589-7.766-17.355-17.355-17.355h-43.388
	c-19.169,0-34.71-15.541-34.71-34.71s15.541-34.71,34.71-34.71h138.84c9.589,0,17.355-7.766,17.355-17.355
	s-7.766-17.355-17.355-17.355h-43.388c-19.169,0-34.71-15.541-34.71-34.71V0h17.355v34.71c0,9.589,7.766,17.355,17.355,17.355
	h43.388c19.169,0,34.71,15.541,34.71,34.71s-15.541,34.71-34.71,34.71h-138.84c-9.589,0-17.355,7.766-17.355,17.355
	s7.766,17.355,17.355,17.355h43.388c19.169,0,34.71,15.541,34.71,34.71V216.938L264.707,216.938z"/>
<path style="fill:#D62121;" d="M330.257,359.649c2.517,4.052,3.853,8.721,3.87,13.485c0,14.379-11.654,26.033-26.033,26.033
	c-4.764-0.017-9.432-1.354-13.485-3.87c7.411,12.27,23.377,16.21,35.647,8.799c12.27-7.411,16.21-23.377,8.799-35.647
	C336.878,364.847,333.858,361.827,330.257,359.649z"/>
<path style="fill:#83B2B7;" d="M390.999,307.584c2.517,4.052,3.853,8.721,3.87,13.485c0,14.379-11.654,26.033-26.033,26.033
	c-4.764-0.017-9.432-1.354-13.485-3.87c7.411,12.27,23.377,16.21,35.647,8.799c12.27-7.411,16.21-23.377,8.799-35.647
	C397.62,312.781,394.601,309.762,390.999,307.584z"/>
<path style="fill:#D62121;" d="M451.742,359.649c2.516,4.052,3.853,8.721,3.87,13.485c0,14.379-11.654,26.033-26.033,26.033
	c-4.764-0.017-9.432-1.354-13.485-3.87c7.411,12.27,23.377,16.21,35.647,8.799c12.27-7.411,16.21-23.377,8.799-35.647
	C458.363,364.847,455.343,361.827,451.742,359.649z"/>
<path style="fill:#83B2B7;" d="M390.999,411.714c2.517,4.052,3.853,8.721,3.87,13.485c0,14.379-11.654,26.033-26.033,26.033
	c-4.764-0.017-9.432-1.354-13.485-3.87c7.411,12.27,23.377,16.21,35.647,8.799c12.27-7.411,16.21-23.377,8.799-35.647
	C397.62,416.912,394.601,413.892,390.999,411.714z"/>
<path style="fill:#202033;" d="M73.801,390.688v8.478h43.388v43.388h34.71v-43.388h43.388v-34.71h-14.483
	C146.527,388.354,94.263,390.749,73.801,390.688z"/>
<path style="fill:#6B3713;" d="M238.674,249.279v2.369h34.71v-28.506C265.115,235.543,252.871,244.758,238.674,249.279z"/>
<g>
</g>
<g>
</g>
<g>
</g>
<g>
</g>
<g>
</g>
<g>
</g>
<g>
</g>
<g>
</g>
<g>
</g>
<g>
</g>
<g>
</g>
<g>
</g>
<g>
</g>
<g>
</g>
<g>
</g>
</svg>
