<svg width="512" height="512" viewBox="0 0 512 512" fill="none" xmlns="http://www.w3.org/2000/svg">
<path d="M136.549 247.463C131.822 247.463 127.095 247.719 122.394 248.222C67.687 254.101 15.454 306.121 9.379 360.845C1.299 431.064 51.681 494.534 121.9 502.614C150.525 505.907 179.415 499.44 203.91 484.27C216.316 476.199 230.47 471.224 245.197 469.765C248.746 469.449 252.347 469.296 255.999 469.296C259.463 469.296 262.901 469.415 266.306 469.663C281.254 471.071 295.639 476.096 308.215 484.304C368.366 521.427 447.219 502.759 484.342 442.608C499.435 418.155 505.86 389.334 502.575 360.794C496.509 306.112 444.267 254.101 389.559 248.222C384.875 247.719 380.165 247.463 375.447 247.463H136.549Z" fill="#FFD33F"/>
<path d="M315.688 401.005C329.824 401.005 341.284 389.545 341.284 375.409C341.284 361.273 329.824 349.813 315.688 349.813C301.552 349.813 290.092 361.273 290.092 375.409C290.092 389.545 301.552 401.005 315.688 401.005Z" fill="#CC2936"/>
<path d="M478.574 302.656C375.882 417.745 144.604 460.576 54.275 473.297C96.5 508.995 156.924 513.406 203.885 484.227C216.291 476.156 230.445 471.181 245.172 469.723C248.738 469.441 252.356 469.296 255.999 469.296C259.463 469.296 262.901 469.415 266.306 469.663C281.254 471.071 295.639 476.096 308.215 484.304C368.366 521.427 447.219 502.759 484.342 442.608C499.435 418.155 505.86 389.334 502.575 360.794C499.827 339.643 491.543 319.593 478.574 302.656Z" fill="#FFAC3E"/>
<path d="M119.485 315.719H153.613V358.379H196.274V392.508H153.613V435.168H119.485V392.508H76.825V358.379H119.485V315.719Z" fill="#383856"/>
<path d="M375.413 349.813C389.549 349.813 401.009 338.353 401.009 324.217C401.009 310.081 389.549 298.621 375.413 298.621C361.277 298.621 349.817 310.081 349.817 324.217C349.817 338.353 361.277 349.813 375.413 349.813Z" fill="#91CECE"/>
<path d="M375.413 452.198C389.549 452.198 401.009 440.738 401.009 426.602C401.009 412.466 389.549 401.006 375.413 401.006C361.277 401.006 349.817 412.466 349.817 426.602C349.817 440.738 361.277 452.198 375.413 452.198Z" fill="#91CECE"/>
<path d="M435.137 401.005C449.273 401.005 460.733 389.545 460.733 375.409C460.733 361.273 449.273 349.813 435.137 349.813C421.001 349.813 409.541 361.273 409.541 375.409C409.541 389.545 421.001 401.005 435.137 401.005Z" fill="#CC2936"/>
<path d="M238.934 247.463V213.334H273.062V247.463" fill="#874D1B"/>
<path d="M328.981 353.653C331.455 357.637 332.769 362.228 332.786 366.912C332.786 381.05 321.327 392.508 307.19 392.508C302.506 392.491 297.916 391.177 293.931 388.703C301.217 400.767 316.916 404.641 328.981 397.354C341.046 390.067 344.919 374.369 337.633 362.304C335.5 358.763 332.522 355.794 328.981 353.653Z" fill="#D62121"/>
<path d="M388.706 302.46C391.18 306.444 392.494 311.035 392.511 315.719C392.511 329.857 381.052 341.315 366.915 341.315C362.231 341.298 357.641 339.984 353.656 337.51C360.942 349.574 376.641 353.448 388.706 346.161C400.77 338.875 404.644 323.176 397.357 311.111C395.224 307.571 392.247 304.602 388.706 302.46Z" fill="#83B2B7"/>
<path d="M448.43 353.653C450.904 357.637 452.218 362.228 452.235 366.912C452.235 381.05 440.776 392.508 426.639 392.508C421.955 392.491 417.365 391.177 413.38 388.703C420.666 400.767 436.365 404.641 448.43 397.354C460.495 390.067 464.368 374.369 457.081 362.304C454.949 358.763 451.971 355.794 448.43 353.653Z" fill="#D62121"/>
<path d="M388.706 404.845C391.18 408.829 392.494 413.42 392.511 418.104C392.511 432.242 381.052 443.7 366.915 443.7C362.231 443.683 357.641 442.369 353.656 439.895C360.942 451.959 376.641 455.833 388.706 448.546C400.77 441.26 404.644 425.561 397.357 413.496C395.224 409.956 392.247 406.986 388.706 404.845Z" fill="#83B2B7"/>
<path d="M76.825 384.172V392.508H119.485V435.168H153.613V392.508H196.273V358.38H182.033C148.332 381.877 96.944 384.231 76.825 384.172Z" fill="#202033"/>
<path d="M238.934 245.133V247.462H273.062V219.434C264.931 231.627 252.901 240.688 238.934 245.133Z" fill="#6B3713"/>
<path d="M196.274 349.847H162.146V315.719C162.146 311.009 158.324 307.187 153.614 307.187H119.486C114.776 307.187 110.954 311.009 110.954 315.719V349.847H76.825C72.115 349.847 68.293 353.669 68.293 358.379V392.507C68.293 397.217 72.115 401.039 76.825 401.039H110.953V435.167C110.953 439.877 114.775 443.699 119.485 443.699H153.613C158.323 443.699 162.145 439.877 162.145 435.167V401.04H196.273C200.983 401.04 204.805 397.218 204.805 392.508V358.38C204.806 353.67 200.983 349.847 196.274 349.847ZM187.742 383.976H153.614C148.904 383.976 145.082 387.798 145.082 392.508V426.636H128.018V392.508C128.018 387.798 124.196 383.976 119.486 383.976H85.357V366.912H119.485C124.195 366.912 128.017 363.09 128.017 358.38V324.252H145.081V358.38C145.081 363.09 148.903 366.912 153.613 366.912H187.741V383.976H187.742Z" fill="white"/>
<path d="M375.447 358.379C394.294 358.379 409.575 343.098 409.575 324.251C409.575 305.404 394.294 290.123 375.447 290.123C356.6 290.123 341.319 305.404 341.319 324.251C341.319 343.098 356.6 358.379 375.447 358.379ZM375.447 307.187C384.875 307.187 392.511 314.823 392.511 324.251C392.511 333.679 384.875 341.315 375.447 341.315C366.019 341.315 358.383 333.679 358.383 324.251C358.383 314.823 366.028 307.187 375.447 307.187Z" fill="white"/>
<path d="M375.447 392.508C356.6 392.508 341.319 407.789 341.319 426.636C341.319 445.483 356.6 460.764 375.447 460.764C394.294 460.764 409.575 445.483 409.575 426.636C409.575 407.788 394.294 392.508 375.447 392.508ZM375.447 443.7C366.019 443.7 358.383 436.064 358.383 426.636C358.383 417.208 366.019 409.572 375.447 409.572C384.875 409.572 392.511 417.208 392.511 426.636C392.511 436.064 384.875 443.7 375.447 443.7Z" fill="white"/>
<path d="M315.723 341.315C296.876 341.315 281.595 356.596 281.595 375.443C281.595 394.29 296.876 409.571 315.723 409.571C334.57 409.571 349.851 394.29 349.851 375.443C349.851 356.596 334.57 341.315 315.723 341.315ZM315.723 392.508C306.295 392.508 298.659 384.872 298.659 375.444C298.659 366.016 306.295 358.38 315.723 358.38C325.151 358.38 332.787 366.016 332.787 375.444C332.787 384.872 325.15 392.508 315.723 392.508Z" fill="white"/>
<path d="M435.171 341.315C416.324 341.315 401.043 356.596 401.043 375.443C401.043 394.29 416.324 409.571 435.171 409.571C454.018 409.571 469.299 394.29 469.299 375.443C469.299 356.596 454.019 341.315 435.171 341.315ZM435.171 392.508C425.743 392.508 418.107 384.872 418.107 375.444C418.107 366.016 425.743 358.38 435.171 358.38C444.599 358.38 452.235 366.016 452.235 375.444C452.235 384.872 444.599 392.508 435.171 392.508Z" fill="white"/>
<path d="M390.497 239.784C385.497 239.229 380.472 238.948 375.446 238.931H281.593V204.803H264.53V187.739C264.53 168.892 249.249 153.611 230.402 153.611H187.742C178.314 153.611 170.678 145.975 170.678 136.547C170.678 127.119 178.314 119.483 187.742 119.483H324.255C343.102 119.483 358.383 104.202 358.383 85.355C358.383 66.508 343.102 51.227 324.255 51.227H281.595C272.167 51.227 264.531 43.591 264.531 34.163V0.0330048H247.467V34.161C247.467 53.008 262.748 68.289 281.595 68.289H324.255C333.683 68.289 341.319 75.925 341.319 85.353C341.319 94.781 333.683 102.417 324.255 102.417H187.742C168.895 102.417 153.614 117.698 153.614 136.545C153.614 155.392 168.895 170.673 187.742 170.673H230.402C239.83 170.673 247.466 178.309 247.466 187.737V204.801H230.402V238.929H136.549C131.515 238.938 126.481 239.228 121.481 239.782C62.611 246.098 7.425 301.104 0.898003 359.898C-7.677 434.801 46.101 502.477 121.004 511.043C151.506 514.533 182.298 507.639 208.398 491.479C219.635 484.124 232.484 479.585 245.845 478.246C252.449 477.726 259.078 477.7 265.682 478.178C279.257 479.492 292.311 484.082 303.718 491.556C367.853 531.196 451.971 511.333 491.611 447.198C507.737 421.098 514.605 390.332 511.107 359.855C504.563 301.061 449.343 246.055 390.497 239.784ZM247.466 221.866H264.53V238.93H247.466V221.866V221.866ZM464.479 455.082C425.906 498.229 361.941 507.486 312.711 477.052C298.966 468.102 283.241 462.641 266.902 461.157C263.301 460.893 259.667 460.765 255.998 460.765C252.116 460.765 248.319 460.927 244.497 461.226C228.406 462.77 212.928 468.171 199.379 476.976C143.281 511.684 69.666 494.347 34.949 438.249C20.82 415.409 14.796 388.482 17.859 361.793C23.473 311.266 72.737 262.19 123.315 256.755C127.709 256.26 132.129 256.013 136.548 255.996H375.446C379.866 255.996 384.285 256.235 388.679 256.704C439.249 262.139 488.504 311.215 494.135 361.742C498.163 395.673 487.353 429.69 464.479 455.082Z" fill="white"/>
</svg>
