<svg width="512" height="456" viewBox="0 0 512 456" fill="none" xmlns="http://www.w3.org/2000/svg">
<path d="M471.383 44.5781C444.879 15.832 408.512 0 368.973 0C339.418 0 312.352 9.34375 288.523 27.7695C276.5 37.0703 265.605 48.4492 256 61.7305C246.398 48.4531 235.5 37.0703 223.473 27.7695C199.648 9.34375 172.582 0 143.027 0C103.488 0 67.1172 15.832 40.6133 44.5781C14.4258 72.9883 0 111.801 0 153.871C0 197.172 16.1367 236.809 50.7812 278.613C81.7734 316.008 126.316 353.969 177.898 397.926C195.512 412.938 215.477 429.953 236.207 448.078C241.684 452.875 248.711 455.516 256 455.516C263.285 455.516 270.316 452.875 275.785 448.086C296.516 429.957 316.492 412.934 334.113 397.914C385.688 353.965 430.23 316.008 461.223 278.609C495.867 236.809 512 197.172 512 153.867C512 111.801 497.574 72.9883 471.383 44.5781Z" fill="#FFD33F"/>
</svg>
