<svg width="512" height="456" viewBox="0 0 512 456" fill="none" xmlns="http://www.w3.org/2000/svg">
<path d="M247.492 67.8833L256 79.6483L264.508 67.8838C273.572 55.3512 283.779 44.7146 294.948 36.0747C316.975 19.0421 341.791 10.5 368.973 10.5C405.616 10.5 439.172 25.1326 463.663 51.6956C487.902 77.9876 501.5 114.184 501.5 153.867C501.5 194.156 486.628 231.502 453.138 271.909L453.138 271.91C422.854 308.454 379.115 345.771 327.303 389.922L327.302 389.923L326.854 390.305C309.347 405.227 289.485 422.157 268.873 440.182L268.868 440.187C265.318 443.295 260.746 445.016 256 445.016C251.253 445.016 246.685 443.297 243.125 440.18L243.118 440.173C222.353 422.018 202.36 404.978 184.765 389.982L184.709 389.934L184.709 389.934C132.89 345.775 89.1504 308.454 58.8659 271.913C25.3753 231.501 10.5 194.155 10.5 153.871C10.5 114.184 24.0985 77.9868 48.3338 51.6946C72.8245 25.1325 106.384 10.5 143.027 10.5C170.209 10.5 195.026 19.0425 217.049 36.0753L217.049 36.0757C228.222 44.7152 238.432 55.3552 247.492 67.8833Z" fill="black" stroke="#91CECE" stroke-width="21"/>
</svg>
