<svg width="512" height="512" viewBox="0 0 512 512" fill="none" xmlns="http://www.w3.org/2000/svg">
<path d="M471.383 72.5781C444.879 43.832 408.512 28 368.973 28C339.418 28 312.352 37.3438 288.523 55.7695C276.5 65.0703 265.605 76.4492 256 89.7305C246.398 76.4531 235.5 65.0703 223.473 55.7695C199.648 37.3438 172.582 28 143.027 28C103.488 28 67.1172 43.832 40.6133 72.5781C14.4258 100.988 0 139.801 0 181.871C0 225.172 16.1367 264.809 50.7812 306.613C81.7734 344.008 126.316 381.969 177.898 425.926C195.512 440.938 215.477 457.953 236.207 476.078C241.684 480.875 248.711 483.516 256 483.516C263.285 483.516 270.316 480.875 275.785 476.086C296.516 457.957 316.492 440.934 334.113 425.914C385.688 381.965 430.23 344.008 461.223 306.609C495.867 264.809 512 225.172 512 181.867C512 139.801 497.574 100.988 471.383 72.5781Z" fill="#FFD33F"/>
<path d="M439.412 99.9611C416.842 75.482 385.873 62 352.203 62C327.036 62 303.987 69.9568 283.696 85.6475C273.457 93.5677 264.18 103.258 256 114.567C247.824 103.261 238.543 93.5677 228.301 85.6475C208.013 69.9568 184.964 62 159.797 62C126.127 62 95.1545 75.482 72.5847 99.9611C50.2845 124.154 38 157.205 38 193.031C38 229.904 51.7414 263.657 81.2434 299.257C107.635 331.1 145.566 363.427 189.492 400.859C204.49 413.642 221.492 428.132 239.145 443.567C243.809 447.651 249.793 449.9 256 449.9C262.204 449.9 268.191 447.651 272.848 443.573C290.502 428.135 307.513 413.639 322.518 400.849C366.437 363.423 404.368 331.1 430.76 299.253C460.262 263.657 474 229.904 474 193.028C474 157.205 461.716 124.154 439.412 99.9611Z" fill="black"/>
</svg>
