<svg width="513" height="513" viewBox="0 0 513 513" fill="none" xmlns="http://www.w3.org/2000/svg">
<g clip-path="url(#clip0)">
<path d="M134.544 251.648C129.737 251.648 124.929 251.908 120.148 252.42C64.508 258.399 11.384 311.306 5.20599 366.963C-3.01201 438.38 48.228 502.932 119.644 511.15C148.757 514.5 178.139 507.922 203.052 492.493C215.669 484.284 230.065 479.225 245.043 477.741C248.653 477.42 252.315 477.264 256.029 477.264C259.552 477.264 263.049 477.385 266.511 477.637C281.714 479.069 296.344 484.18 309.135 492.528C370.312 530.284 450.509 511.297 488.265 450.121C503.616 425.251 510.15 395.939 506.809 366.912C500.639 311.298 447.507 258.4 391.866 252.421C387.093 251.909 382.303 251.649 377.513 251.649H134.544V251.648Z" fill="#FFD33F"/>
<path d="M316.772 407.844C331.15 407.844 342.805 396.189 342.805 381.811C342.805 367.433 331.15 355.778 316.772 355.778C302.394 355.778 290.739 367.433 290.739 381.811C290.739 396.189 302.394 407.844 316.772 407.844Z" fill="#EA3836"/>
<path d="M482.4 307.783C377.957 424.834 142.735 468.396 50.866 481.334C93.811 517.641 155.265 522.127 203.026 492.45C215.643 484.241 230.039 479.182 245.017 477.698C248.644 477.412 252.323 477.264 256.029 477.264C259.552 477.264 263.049 477.385 266.511 477.637C281.714 479.069 296.344 484.18 309.135 492.528C370.312 530.284 450.509 511.297 488.265 450.121C503.616 425.251 510.15 395.939 506.809 366.912C504.007 345.4 495.59 325.008 482.4 307.783Z" fill="#FFAC3E"/>
<path d="M117.189 321.068H151.899V364.456H195.286V399.166H151.899V442.554H117.189V399.166H73.801V364.456H117.189V321.068Z" fill="#383856"/>
<path d="M377.514 355.779C391.892 355.779 403.547 344.124 403.547 329.746C403.547 315.368 391.892 303.713 377.514 303.713C363.136 303.713 351.481 315.368 351.481 329.746C351.481 344.124 363.136 355.779 377.514 355.779Z" fill="#91CECE"/>
<path d="M377.514 459.909C391.892 459.909 403.547 448.254 403.547 433.876C403.547 419.498 391.892 407.843 377.514 407.843C363.136 407.843 351.481 419.498 351.481 433.876C351.481 448.254 363.136 459.909 377.514 459.909Z" fill="#91CECE"/>
<path d="M438.301 407.844C452.679 407.844 464.334 396.189 464.334 381.811C464.334 367.433 452.679 355.778 438.301 355.778C423.923 355.778 412.268 367.433 412.268 381.811C412.268 396.189 423.923 407.844 438.301 407.844Z" fill="#EA3836"/>
<path d="M238.674 251.648V216.938H273.384V251.648" fill="#874D1B"/>
<path d="M264.707 216.938H247.352V190.905C247.352 181.316 239.586 173.55 229.997 173.55H186.609C167.44 173.55 151.899 158.009 151.899 138.84C151.899 119.671 167.44 104.13 186.609 104.13H325.449C335.038 104.13 342.804 96.364 342.804 86.775C342.804 77.186 335.038 69.42 325.449 69.42H282.061C262.892 69.42 247.351 53.879 247.351 34.71V0H264.706V34.71C264.706 44.299 272.472 52.065 282.061 52.065H325.449C344.618 52.065 360.159 67.606 360.159 86.775C360.159 105.944 344.618 121.485 325.449 121.485H186.609C177.02 121.485 169.254 129.251 169.254 138.84C169.254 148.429 177.02 156.195 186.609 156.195H229.997C249.166 156.195 264.707 171.736 264.707 190.905V216.938Z" fill="white"/>
<path d="M330.257 359.649C332.774 363.701 334.11 368.37 334.127 373.134C334.127 387.513 322.473 399.167 308.094 399.167C303.33 399.15 298.662 397.813 294.609 395.297C302.02 407.567 317.986 411.507 330.256 404.096C342.526 396.685 346.466 380.719 339.055 368.449C336.878 364.847 333.858 361.827 330.257 359.649Z" fill="#D62121"/>
<path d="M390.999 307.584C393.516 311.636 394.852 316.305 394.869 321.069C394.869 335.448 383.215 347.102 368.836 347.102C364.072 347.085 359.404 345.748 355.351 343.232C362.762 355.502 378.728 359.442 390.998 352.031C403.268 344.62 407.208 328.654 399.797 316.384C397.62 312.781 394.601 309.762 390.999 307.584Z" fill="#83B2B7"/>
<path d="M451.742 359.649C454.258 363.701 455.595 368.37 455.612 373.134C455.612 387.513 443.958 399.167 429.579 399.167C424.815 399.15 420.147 397.813 416.094 395.297C423.505 407.567 439.471 411.507 451.741 404.096C464.011 396.685 467.951 380.719 460.54 368.449C458.363 364.847 455.343 361.827 451.742 359.649Z" fill="#D62121"/>
<path d="M390.999 411.714C393.516 415.766 394.852 420.435 394.869 425.199C394.869 439.578 383.215 451.232 368.836 451.232C364.072 451.215 359.404 449.878 355.351 447.362C362.762 459.632 378.728 463.572 390.998 456.161C403.268 448.75 407.208 432.784 399.797 420.514C397.62 416.912 394.601 413.892 390.999 411.714Z" fill="#83B2B7"/>
<path d="M73.801 390.688V399.166H117.189V442.554H151.899V399.166H195.287V364.456H180.804C146.527 388.354 94.263 390.749 73.801 390.688Z" fill="#202033"/>
<path d="M238.674 249.279V251.648H273.384V223.142C265.115 235.543 252.871 244.758 238.674 249.279Z" fill="#6B3713"/>
</g>
<defs>
<clipPath id="clip0">
<rect width="512.003" height="512.003" fill="white"/>
</clipPath>
</defs>
</svg>
