<svg width="512" height="512" viewBox="0 0 512 512" fill="none" xmlns="http://www.w3.org/2000/svg">
<path d="M437.019 74.982C388.667 26.629 324.38 0.000976562 255.999 0.000976562C187.618 0.000976562 123.333 26.629 74.981 74.982C26.629 123.333 0 187.62 0 256C0 324.38 26.629 388.668 74.981 437.019C123.333 485.372 187.621 512 256.001 512C324.381 512 388.669 485.371 437.02 437.019C485.372 388.668 512.001 324.38 512.001 256C512.001 187.62 485.371 123.333 437.019 74.982ZM255.999 481.158C131.848 481.158 30.843 380.152 30.843 256C30.843 131.848 131.848 30.843 255.999 30.843C380.15 30.843 481.156 131.849 481.156 256C481.156 380.151 380.152 481.158 255.999 481.158Z" fill="#FFAC3E"/>
<path d="M396.853 240.579H115.147C106.63 240.579 99.726 247.484 99.726 256C99.726 264.517 106.631 271.421 115.147 271.421H396.853C405.37 271.421 412.274 264.516 412.274 256C412.274 247.483 405.37 240.579 396.853 240.579Z" fill="white"/>
<path d="M376.291 155.76H135.709C127.192 155.76 120.288 162.665 120.288 171.181C120.288 179.698 127.193 186.603 135.709 186.603H376.291C384.808 186.603 391.713 179.698 391.713 171.181C391.713 162.665 384.808 155.76 376.291 155.76Z" fill="white"/>
<path d="M376.291 325.397H135.709C127.192 325.397 120.288 332.302 120.288 340.818C120.288 349.335 127.193 356.239 135.709 356.239H376.291C384.808 356.239 391.713 349.334 391.713 340.818C391.713 332.301 384.808 325.397 376.291 325.397Z" fill="white"/>
</svg>
