<svg width="612" height="612" viewBox="0 0 612 612" fill="none" xmlns="http://www.w3.org/2000/svg">
<g clip-path="url(#clip0)">
<path d="M331.166 215.266C339.436 206.954 339.436 193.496 331.166 185.205L184.727 16.68C180.318 12.25 174.454 10.372 168.695 10.668C162.915 10.372 157.072 12.25 152.663 16.68L6.20199 185.185C-2.06701 193.497 -2.06701 206.955 6.20199 215.245C14.472 223.535 27.888 223.557 36.157 215.245L147.938 86.63V580.248C147.938 591.898 157.382 601.342 169.033 601.342V601.342C180.683 601.342 190.127 591.898 190.127 580.248V87.41L301.232 215.265C309.48 223.556 322.896 223.556 331.166 215.266ZM337.769 95.089H590.906C602.551 95.089 612.001 85.069 612.001 73.403C612.001 61.738 602.551 52.288 590.906 52.288H337.769C326.124 52.288 316.674 61.738 316.674 73.403C316.674 85.069 326.124 95.089 337.769 95.089ZM590.905 178.982L422.147 179.446C410.502 179.446 401.052 188.432 401.052 200.098C401.052 211.763 410.502 221.635 422.147 221.635L590.905 221.213C602.55 221.213 612 211.763 612 200.098C612 188.433 602.57 178.982 590.905 178.982Z" fill="black"/>
</g>
<defs>
<clipPath id="clip0">
<rect width="612" height="612" fill="white"/>
</clipPath>
</defs>
</svg>
