<svg width="512" height="512" viewBox="0 0 512 512" fill="none" xmlns="http://www.w3.org/2000/svg">
<path d="M187.639 169.473L135.527 117.361C129.72 111.546 120.28 111.546 114.473 117.361L62.3607 169.473C56.5464 175.288 56.5464 184.712 62.3607 190.527C68.1675 196.341 77.6073 196.341 83.4142 190.527L110.111 163.83V455.452C110.111 463.671 116.781 470.341 125 470.341C133.219 470.341 139.889 463.671 139.889 455.452V163.83L166.586 190.527C169.489 193.438 173.301 194.889 177.113 194.889C180.924 194.889 184.736 193.438 187.639 190.527C193.454 184.712 193.454 175.288 187.639 169.473V169.473Z" fill="black"/>
<path d="M355.639 392.815C349.825 387 340.4 387 334.586 392.815L307.889 419.511V127.889C307.889 119.67 301.219 113 293 113C284.781 113 278.111 119.67 278.111 127.889V419.511L251.414 392.815C245.6 387 236.168 387 230.361 392.815C224.546 398.629 224.546 408.054 230.361 413.868L282.473 465.981C285.384 468.891 289.188 470.343 293 470.343C296.812 470.343 300.616 468.891 303.527 465.981L355.639 413.868C361.454 408.054 361.454 398.629 355.639 392.815Z" fill="black"/>
<path fill-rule="evenodd" clip-rule="evenodd" d="M456.322 138.907C462.897 132.46 463 121.903 456.552 115.329L428.922 87.1545L458.496 60.4687C465.333 54.2998 465.874 43.7567 459.705 36.92C453.536 30.0832 442.993 29.5419 436.157 35.7108L405.553 63.3254L374.831 31.999C368.383 25.4245 357.827 25.3216 351.252 31.7692C344.678 38.2168 344.575 48.7733 351.022 55.3479L380.773 85.6843L349.504 113.899C342.667 120.068 342.126 130.611 348.295 137.448C354.464 144.285 365.007 144.826 371.843 138.657L404.142 109.513L432.743 138.678C439.191 145.252 449.748 145.355 456.322 138.907Z" fill="#CC2936"/>
</svg>
