<svg width="612" height="612" viewBox="0 0 612 612" fill="none" xmlns="http://www.w3.org/2000/svg">
<g clip-path="url(#clip0)">
<path d="M280.834 396.734C272.564 405.046 272.564 418.504 280.834 426.795L427.273 595.32C431.682 599.75 437.546 601.628 443.305 601.332C449.085 601.628 454.928 599.75 459.337 595.32L605.798 426.815C614.067 418.503 614.067 405.045 605.798 396.755C597.528 388.465 584.112 388.443 575.843 396.755L464.062 525.37L464.062 31.7525C464.062 20.1023 454.618 10.658 442.967 10.658V10.658C431.317 10.658 421.873 20.1023 421.873 31.7525L421.873 524.59L310.768 396.735C302.52 388.444 289.104 388.444 280.834 396.734ZM274.231 516.911L21.094 516.911C9.44899 516.911 -0.000976562 526.931 -0.000976562 538.597C-0.000976562 550.262 9.44899 559.712 21.094 559.712L274.231 559.712C285.876 559.712 295.326 550.262 295.326 538.597C295.326 526.931 285.876 516.911 274.231 516.911ZM21.095 433.018L189.853 432.554C201.498 432.554 210.948 423.568 210.948 411.902C210.948 400.237 201.498 390.365 189.853 390.365L21.095 390.787C9.44997 390.787 0 400.237 0 411.902C0 423.567 9.42997 433.018 21.095 433.018Z" fill="black"/>
</g>
<defs>
<clipPath id="clip0">
<rect width="612" height="612" fill="white" transform="translate(612 612) rotate(-180)"/>
</clipPath>
</defs>
</svg>
